PathFileType	4	(X/Y/Z)	Patient4_TMGait_0pt5_01_left_22.trc.trc
DataRate	CameraRate	NumFrames	NumMarkers	Units	OrigDataRate	OrigDataStartFrame	OrigNumFrames
72.916666666667	72.916666666667	6	33	mm	72.916666666667	106	       141
Frame#	Time	L.ASIS			Sacral			L.Shoulder			Chest			R.Shoulder			Neck			R.ASIS			R.Thigh.Superior			R.Thigh.Lateral			R.Thigh.Inferior			R.Patella			L.Thigh.Superior			L.Thigh.Lateral			L.Thigh.Inferior			L.Patella			L.Shank.Superior			L.Shank.Lateral			L.Shank.Inferior			R.Shank.Superior			R.Shank.Lateral			R.Shank.Inferior			R.Heel			R.Midfoot.Superior			R.Midfoot.Lateral			R.Toe			L.Heel			L.Midfoot.Lateral			L.Midfoot.Superior			L.Toe			L.Elbow			L.Wrist			R.Elbow			R.Wrist			
		X1	Y1	Z1	X2	Y2	Z2	X3	Y3	Z3	X4	Y4	Z4	X5	Y5	Z5	X6	Y6	Z6	X7	Y7	Z7	X8	Y8	Z8	X9	Y9	Z9	X10	Y10	Z10	X11	Y11	Z11	X12	Y12	Z12	X13	Y13	Z13	X14	Y14	Z14	X15	Y15	Z15	X16	Y16	Z16	X17	Y17	Z17	X18	Y18	Z18	X19	Y19	Z19	X20	Y20	Z20	X21	Y21	Z21	X22	Y22	Z22	X23	Y23	Z23	X24	Y24	Z24	X25	Y25	Z25	X26	Y26	Z26	X27	Y27	Z27	X28	Y28	Z28	X29	Y29	Z29	X30	Y30	Z30	X31	Y31	Z31	X32	Y32	Z32	X33	Y33	Z33	

106	30.860000000000	906.401332782840	966.377748896379	357.899494598046	706.457051039654	1009.387156516132	532.699860514590	859.911700530428	1437.244220458411	342.440438947113	978.765752497071	1366.440687939882	491.856490670213	914.355625310705	1440.436525311953	674.599998529845	879.010992323629	1498.626452845438	492.125652047886	942.122101712880	942.671478709460	629.836822622455	971.515395954535	738.570100590720	596.632589911221	887.448900161411	632.983218093427	658.026916486753	956.732347319783	577.789389730818	573.612826151492	952.336248845459	489.132177703346	577.104782342243	992.579795254177	787.517812074982	383.522679835567	946.833840097573	659.537386535829	308.761588216525	1051.443311571770	598.622901192961	366.164973681763	1070.225496000417	514.945124203478	358.758872812571	1021.727063554373	441.124710478247	351.438322659338	898.958928411168	360.757354172151	303.758350076176	927.214739188892	233.340798459073	357.522834692338	921.372924035902	402.047068783999	583.523866247447	848.765632836773	300.204404384485	645.420384783169	883.326807225909	205.285094638827	578.729257171797	741.047163854676	43.767086972441	549.178262214437	913.635098341677	97.068230610510	581.760335570855	825.631193335993	36.705863839888	622.460206178369	1033.867879516017	42.152709373332	607.679584286330	766.905276677993	112.515869787677	396.893267880850	833.432944733307	89.525024099367	314.530072172316	930.448271675527	129.319824472497	334.497709299367	1037.945059199543	49.093222607886	302.844655823956	778.273442414777	1087.718296877659	238.777459565652	833.495712451317	832.287448161493	220.782971733305	950.909609240788	1105.051444256760	811.404271298589	1172.192926987970	983.478483697602	759.443408925351	
107	30.873714285714	904.108194626745	966.976787998511	357.696476946101	705.057117590339	1010.133214223018	533.752603675154	858.548026690592	1437.827521518244	343.653076220308	978.344027797130	1366.298713970193	491.975654510067	915.634798072600	1440.148508586481	675.397247469316	878.798937829209	1498.771762995900	493.366130679449	940.936240325056	942.369010947991	629.502196687939	967.762763358460	737.796117408848	595.986996458312	882.972454065679	632.974145925015	658.138859797788	951.057667216329	577.093663112658	573.425103891779	945.830443082755	488.856508055032	577.086412317310	989.830621785973	788.137615085814	383.807711785041	944.639813349496	660.243627509995	308.590356268737	1048.196338087350	599.213697167247	367.463758668206	1068.530278244346	517.804801398100	359.872377546528	1024.547765065067	443.373117086229	351.557641386999	908.483461253327	354.787054237291	302.508710697837	945.634817277563	229.280774766494	356.085150840907	914.841043330121	401.876834792177	583.569846744578	842.076876718186	300.135153754669	645.455299610949	876.547259637712	205.176849586377	578.733225472114	734.110040091752	43.703248155246	549.167804009299	906.675471663838	97.003048268318	581.715637817844	818.676274979186	36.688621279683	622.462875389910	1026.908836386361	42.164709896563	607.728012830113	794.628705971911	96.525443374716	394.237877239777	863.076893623213	79.214386000188	312.003412442818	956.759934576265	125.895151369476	332.602523895840	1070.052694567297	54.220108537177	300.991634061572	773.182572005849	1089.132161148672	240.430296315316	825.599144040296	833.098216342198	222.597449532411	958.824935091242	1104.962044446655	810.261148745744	1183.379105025481	991.833486207815	754.308704411243	
108	30.887428571429	901.920877166012	967.340090614794	357.375643825832	703.709847932692	1010.679380003808	534.640898373445	857.259673705272	1438.245685258681	344.690112364176	977.892160886149	1366.013448963730	491.991885212344	916.733631141501	1439.682075295175	676.022868445922	878.563132503907	1498.761048850043	494.434772127312	939.776554567019	941.999653273855	629.101926443816	964.169952069491	736.984153810025	595.382358576576	878.656842080017	632.889197012104	658.209364253232	945.626154305902	576.362063674769	573.256259645700	939.574575167087	488.525693733239	577.060591726109	986.737090901447	788.099458949226	384.015663390850	941.898071562349	660.484465785817	308.224071121388	1044.221729564471	599.112519191062	368.730719171707	1066.035563431132	520.162179654755	360.990451718162	1026.629245877728	445.488656733896	351.661776153325	917.993714699967	349.057829172002	301.027912473045	963.780674709184	226.116918358831	354.700873337687	908.500379248849	401.634338187343	583.580385565031	835.537892512468	300.024234469585	645.459287582377	869.836356804087	205.013145228131	578.701842514050	727.169166263841	43.635634445656	549.148716123330	899.700498375835	96.925560193830	581.644617667802	811.721038286637	36.669456828913	622.459129613347	1019.950209339731	42.179458061333	607.765371480534	822.774576969949	82.203410335633	391.391639473369	893.040958449244	70.427971606647	309.590089432061	982.895353586386	123.721059987929	330.997278777208	1101.430565556297	60.730146141246	300.051177868781	768.453303263366	1090.356963182157	241.857632862130	818.176896323302	833.784934714018	224.171052966378	966.508223597740	1104.778135418847	808.755770828342	1193.945290668582	1000.284709390436	748.768759050308	
109	30.901142857143	899.850916123757	967.476870248582	356.956914664890	702.438083092389	1011.021831931460	535.375745476279	856.048082750859	1438.501411810762	345.529610025648	977.405654415761	1365.607566519442	491.899849743229	917.624427631475	1439.070172935001	676.462151086830	878.297519787828	1498.609273806247	495.304902008544	938.661280292445	941.575553178865	628.651119836789	960.783355449658	736.141703979409	594.832535316628	874.544095162419	632.727241566396	658.232704983061	940.487746632342	575.597824567890	573.099243803262	933.615152181199	488.128530586446	577.013382832801	983.370022617749	787.477237612737	384.134710944025	938.720922176743	660.324399840830	307.646643440578	1039.730739893045	598.443679686662	369.847728850016	1062.927727510394	522.063345448846	362.032439399257	1028.050597893148	447.503221770381	351.723280413655	927.347100567974	343.789676192562	299.390481337954	981.310635188669	223.995310527099	353.440378754699	902.389864603945	401.312982983982	583.545784159666	829.180328713866	299.876050563342	645.429786174509	863.209637031146	204.795184254344	578.634022071963	720.225162471091	43.567366497909	549.125952436439	892.714002408562	96.840266025440	581.555468879977	804.766812813590	36.649944827459	622.454493082481	1012.992827380483	42.198372041068	607.792976922914	850.704292958738	69.949053656777	388.533167244225	922.679575175928	63.398956757380	307.448252969339	1008.338260391529	122.890711115485	329.771625527092	1131.480458667503	68.482122531219	300.098017506989	764.116532607207	1091.380396850336	243.037165206066	811.255954353451	834.330795753940	225.490415955871	973.926791502954	1104.531512127725	806.889864900918	1203.839050064968	1008.818242974955	742.857785432424	
110	30.914857142857	897.909093008974	967.409608289928	356.460316947393	701.262014570241	1011.165882915747	535.964211265181	854.908499334312	1438.602789673211	346.153546992089	976.880442233862	1365.110072338199	491.694170093791	918.289606340112	1438.354955928622	676.703713197088	877.991219697063	1498.336917589436	495.954036661221	937.609984407283	941.107975176712	628.159313570804	957.640171373041	735.276205681083	594.334246278670	870.672310838981	632.489434831813	658.198599401039	935.678328831769	574.805139464379	572.935288478585	927.988260883959	487.654333994728	576.924192356465	979.834710637052	786.381125937466	384.146651342121	935.247586908025	659.840461054876	306.868391447446	1034.966737917153	597.351580697229	370.709123778815	1059.415186461876	523.561081689144	362.928499639403	1028.909086154995	449.426282555600	351.716338466351	936.350751024886	339.142080485120	297.699435098857	997.873590317617	222.943670142608	352.351595082276	896.539523755980	400.908475709961	583.453659444004	823.028273070662	299.696549547227	645.361343842417	856.680240655785	204.525699405157	578.528042561615	713.279438069051	43.502464229154	549.103468154768	885.721746117529	96.752621502772	581.457155622442	797.814944387441	36.631918477841	622.453221645716	1006.037397387256	42.221998871469	607.812418010028	877.724364185807	59.982087095818	385.853679716468	951.275589498622	58.189554488838	305.706254900152	1032.551009869790	123.342310826327	328.957180159265	1159.616305074912	77.161472054307	301.063138921763	760.194515392486	1092.198488910954	243.946817890719	804.864578498823	834.727607653873	226.543033386151	981.041445572338	1104.261901387698	804.668373235690	1213.012490779815	1017.415255140911	736.616147149447	
111	30.928571428571	896.107691571867	967.169231901214	355.903686456709	700.198738148110	1011.122776550391	536.407832462805	853.828855978754	1438.560894166307	346.549275332255	976.312595642780	1364.552608049014	491.369195437654	918.722249947374	1437.581793499678	676.740204455628	877.628945372370	1497.966387782300	496.365616102370	936.642544552895	940.605814500398	627.629559902119	954.767510838119	734.394265740087	593.869089721337	867.074685804008	632.178288045818	658.094249766184	931.221304737657	573.988045986372	572.738484564291	922.719833310748	487.092868084816	576.769364392735	976.271501715113	784.948399088198	384.027477848089	931.633595965527	659.110384602057	305.931635140301	1030.186680432797	595.984576958668	371.235935888978	1055.718870824870	524.706389998119	363.625524610775	1029.312993273426	451.239195303310	351.622385596545	944.774923028620	335.202574726103	296.077403142352	1013.124958487614	222.870708000512	351.459840299443	890.970971535535	400.418703370385	583.291493512722	817.098458999580	299.492403707486	645.246924390900	850.259075055605	204.208355532730	578.382169662082	706.334277207562	43.445990979543	549.084014674752	878.731014502701	96.668143724954	581.358249694081	790.866944525375	36.617416495866	622.457752792174	999.084792944214	42.249480085221	607.825425032354	903.124770571657	52.337679487011	383.542467269164	978.074389670575	54.698301963573	304.450820950323	1054.996371620277	124.868693605873	328.527605332941	1185.281429914592	86.302413809645	302.735055837113	756.698850707935	1092.812994646160	244.567692010838	799.030900140282	834.973197071766	227.317033448731	987.808338176651	1104.011589875546	802.103114498348	1221.424157271976	1026.048489657452	730.091185300324	
